<?xml version="1.0" encoding="UTF-8"?>
<svg id="uuid-b4b87207-4a3d-4c95-9aa3-ac4905e1967e" data-name="Layer 1" xmlns="http://www.w3.org/2000/svg" viewBox="0 0 510.24 510.24">
  <path d="m389.13,145.71C294.91,21.2,76.41,95.95,82.12,255.13c-5.88,186.74,271.72,236.64,333.7,64.16" style="fill: none; stroke: #4169c8; stroke-linecap: round; stroke-linejoin: round; stroke-width: 37px;"/>
  <path d="m460.1,149.59C393.98,4.88,197.1-8.07,88.36,95.56c-30.29,28.87-51.63,67-59.67,108.12-7.52,43.84-6.55,90.44,8.13,132.72,19.46,55.96,65.09,100.25,119.08,123.35,123.24,53.44,276.13,7.29,317.03-128.59" style="fill: none; stroke: #4169c8; stroke-linecap: round; stroke-linejoin: round; stroke-width: 37px;"/>
  <path d="m182.24,317.98c-5.76-.3-10.22-5.15-10.06-10.91l3.81-134.78c.29-10.35,13.73-14.21,19.45-5.58,8.62,12.99,17.12,26.06,25.31,39.35,5.44,8.82,10.72,17.92,14.65,27.53.32.78,1.39.85,1.79.11,12.33-22.47,24.43-45.14,38.14-66.79.47-.74.94-1.48,1.41-2.21,5.34-8.36,18.21-5.51,19.48,4.32.71,5.56,1.77,11.09,3.34,16.59,4.64,16.24,11.43,30.83,20.51,45.05,17.62,27.57,45.08,46.57,73.17,62.16,31.77,17.64,5.03,15.78,40.41,22.95" style="fill: #4169c8;"/>
</svg>