<?xml version="1.0" encoding="utf-8"?>
<!-- Generator: Adobe Illustrator 27.2.0, SVG Export Plug-In . SVG Version: 6.00 Build 0)  -->
<svg version="1.1" id="uuid-da65e46b-61a8-4dc2-bd84-186be3102a0c"
	 xmlns="http://www.w3.org/2000/svg" xmlns:xlink="http://www.w3.org/1999/xlink" x="0px" y="0px" viewBox="0 0 24 24"
	 style="enable-background:new 0 0 24 24;" xml:space="preserve">
<style type="text/css">
	.st0{fill:#E8EAED;}
	.st1{fill:none;stroke:#E8EAED;stroke-width:2;stroke-miterlimit:10;}
</style>
<path class="st0" d="M12,6c-0.6,0-1-0.2-1.4-0.6S10,4.5,10,4s0.2-1,0.6-1.4S11.4,2,12,2s1,0.2,1.4,0.6S14,3.5,14,4s-0.2,1-0.6,1.4
	S12.6,6,12,6z M17,22v-5h-5c-0.6,0-1-0.2-1.4-0.6S10,15.6,10,15V9c0-0.6,0.2-1,0.6-1.4S11.4,7,12,7c0.4,0,0.8,0.1,1,0.3
	c0.3,0.2,0.6,0.4,0.9,0.8c0.9,1.1,1.8,1.9,2.5,2.3S18.1,11,19,11v2c-0.9,0-1.8-0.2-2.7-0.6S14.6,11.6,14,11v3.4h3
	c0.5,0,1,0.2,1.4,0.6s0.6,0.9,0.6,1.4V22L17,22L17,22z M10,22c-1.4,0-2.6-0.5-3.5-1.5S5,18.4,5,17c0-1.2,0.4-2.3,1.1-3.2
	s1.7-1.5,2.9-1.7v2.1c-0.6,0.2-1.1,0.6-1.4,1.1S7,16.3,7,17c0,0.8,0.3,1.5,0.9,2.1S9.2,20,10,20c0.6,0,1.2-0.2,1.7-0.6
	s0.9-0.9,1.1-1.4h2.1c-0.2,1.1-0.8,2.1-1.7,2.9C12.3,21.6,11.2,22,10,22z"/>
<line class="st1" x1="2.3" y1="2.3" x2="22.6" y2="22.3"/>
</svg>
