<?xml version="1.0" encoding="UTF-8"?>
<svg id="uuid-971f9854-39db-4b7c-8cb8-f48a788e0bb8" data-name="Layer 1" xmlns="http://www.w3.org/2000/svg" viewBox="0 0 24 24">
  <path d="m7.14,17.92h3.21l4.9-8.83h1.61c.42,0,.77-.15,1.06-.44s.44-.65.44-1.06-.15-.77-.44-1.06c-.29-.29-.65-.44-1.06-.44h-3.21l-4.9,8.83h-1.61c-.42,0-.77.15-1.06.44s-.44.65-.44,1.06.15.77.44,1.06c.29.29.65.44,1.06.44Zm-2.07,3.29c-.63,0-1.17-.22-1.61-.67-.44-.44-.67-.98-.67-1.61V5.07c0-.63.22-1.17.67-1.61.44-.44.98-.67,1.61-.67h13.86c.63,0,1.17.22,1.61.67s.67.98.67,1.61v13.86c0,.63-.22,1.17-.67,1.61-.44.44-.98.67-1.61.67,0,0-13.86,0-13.86,0Z" style="fill: #ededed;"/>
  <line x1="1.11" y1="1.89" x2="23.11" y2="22.56" style="fill: none; stroke: #ddd; stroke-miterlimit: 10; stroke-width: 2px;"/>
</svg>