<?xml version="1.0" encoding="utf-8"?>
<!-- Generator: Adobe Illustrator 27.2.0, SVG Export Plug-In . SVG Version: 6.00 Build 0)  -->
<svg version="1.1" id="uuid-deb1ca26-19e3-4c80-8596-e87f32fe661d"
	 xmlns="http://www.w3.org/2000/svg" xmlns:xlink="http://www.w3.org/1999/xlink" x="0px" y="0px" viewBox="0 0 77 49.4"
	 style="enable-background:new 0 0 77 49.4;" xml:space="preserve">
<style type="text/css">
	.st0{fill:#4A68C2;stroke:#4A68C2;stroke-miterlimit:10;}
</style>
<g>
	<g>
		<path class="st0" d="M1.8,41l5.5-6.6c3,2.6,7,4.5,10.5,4.5c4,0,6-1.6,6-4.1c0-2.7-2.4-3.5-6.1-5.1l-5.5-2.4
			c-4.4-1.8-8.6-5.4-8.6-11.6C3.5,8.6,9.8,3,18.7,3c4.9,0,10,1.9,13.7,5.6l-4.9,6.1c-2.8-2.2-5.5-3.3-8.8-3.3
			c-3.3,0-5.4,1.4-5.4,3.8c0,2.6,2.8,3.6,6.5,5l5.4,2.2c5.2,2.1,8.5,5.6,8.5,11.6c0,7.1-5.9,13.2-16.1,13.2C12,47.2,6.1,45.1,1.8,41
			z"/>
		<path class="st0" d="M40.9,3.7h15.4c9,0,16.5,3.1,16.5,13.3c0,9.8-7.4,14-16.5,14h-5.7v15.3h-9.6V3.7z M55.5,23.4
			c5.1,0,7.8-2.2,7.8-6.4c0-4.2-2.7-5.6-7.8-5.6h-4.9v12H55.5z M54.5,28.5l6.7-6.2l13.6,24H64L54.5,28.5z"/>
	</g>
</g>
</svg>
